<?xml version="1.0" standalone="no"?>
<!DOCTYPE svg PUBLIC "-//W3C//DTD SVG 20010904//EN"
 "http://www.w3.org/TR/2001/REC-SVG-20010904/DTD/svg10.dtd">
<svg version="1.0" xmlns="http://www.w3.org/2000/svg"
 width="200.000000pt" height="200.000000pt" viewBox="0 0 200.000000 200.000000"
 preserveAspectRatio="xMidYMid meet">
<metadata>
Created by potrace 1.11, written by Peter Selinger 2001-2013
</metadata>
<g transform="translate(0.000000,200.000000) scale(0.100000,-0.100000)"
fill="#000000" stroke="none">
<path d="M920 1664 c-104 -17 -203 -52 -268 -96 -24 -15 -46 -28 -49 -28 -3 0
-33 -28 -67 -62 -142 -143 -208 -310 -201 -503 10 -246 147 -459 365 -570 126
-64 298 -88 433 -59 35 7 71 14 78 16 8 2 16 5 19 8 3 3 25 14 50 25 221 97
375 329 386 580 12 277 -168 551 -427 648 -94 36 -238 54 -319 41z"/>
</g>
</svg>
